<svg xmlns="http://www.w3.org/2000/svg" width="50" height="38" viewBox="0 0 25 19"><g fill="none" fill-rule="evenodd"><path fill="#B8DCFF" d="M13 12L23 2l1.375 1.625-8.438 8.875L13 12"/><path fill="#0064FE" d="M24.56 2.56L22.44.44a1.5 1.5 0 00-2.122 0L12.44 8.318a1.5 1.5 0 00-.44 1.06V12a1 1 0 001 1h2.621a1.5 1.5 0 001.061-.44l7.879-7.878a1.5 1.5 0 000-2.122zm-8.585 9.293a.496.496 0 01-.354.147H13V9.379a.5.5 0 01.146-.354l6.111-6.11 2.829 2.828-6.111 6.11zm7.879-7.878l-1.061 1.06-2.829-2.828 1.061-1.06a.5.5 0 01.707 0l2.121 2.12a.5.5 0 010 .708zM12.213 15.09A6.986 6.986 0 018.5 16a2.69 2.69 0 01-1.333-.405A6.912 6.912 0 009 11.5 2.392 2.392 0 006.5 9 2.343 2.343 0 004 11.5a5.903 5.903 0 001.666 4.193A7.666 7.666 0 01.5 18a.5.5 0 100 1 8.762 8.762 0 005.966-2.653c.601.41 1.307.636 2.034.653a7.81 7.81 0 004.289-1.091.5.5 0 00-.576-.819zm-5.857-.13A4.863 4.863 0 015 11.5 1.36 1.36 0 016.5 10 1.394 1.394 0 018 11.5a6.079 6.079 0 01-1.643 3.46z"/></g></svg>