<svg xmlns="http://www.w3.org/2000/svg" width="50" height="50"><g fill="none" fill-rule="evenodd"><path fill="#B8DCFF" d="M24 14v10H14v4h14V14z"/><path fill="#B8DCFF" d="M32 22v10H22v4h14V22z"/><path fill="#0064FE" d="M48 8a2 2 0 002-2V2a2 2 0 00-2-2h-4a2 2 0 00-2 2v2H8V2a2 2 0 00-2-2H2a2 2 0 00-2 2v4a2 2 0 002 2h2v34H2a2 2 0 00-2 2v4a2 2 0 002 2h4a2 2 0 002-2v-2h34v2a2 2 0 002 2h4a2 2 0 002-2v-4a2 2 0 00-2-2h-2V8h2zM2 6V2h4v4H2zm4 42H2v-4h4v4zm36-4H8a2 2 0 00-2-2V8a2 2 0 002-2h34a2 2 0 002 2v34a2 2 0 00-2 2zm6 0v4h-4v-4h4zM44 6V2h4v4h-4z"/><path fill="#0064FE" d="M36 20h-6v-6a2 2 0 00-2-2H14a2 2 0 00-2 2v14a2 2 0 002 2h6v6a2 2 0 002 2h14a2 2 0 002-2V22a2 2 0 00-2-2zm-22-6h14v14H14V14zm22 22H22v-6h6a2 2 0 002-2v-6h6v14z"/></g></svg>