<svg width="140" height="28" fill="none" xmlns="http://www.w3.org/2000/svg"><g clip-path="url(#clip0)"><path d="M36.59 1.292h6.691v1.752H38.74v2.37h4.09v1.75h-4.09v4.121h-2.15V1.292zM49.036 3.8h2.115v7.485h-2.01V9.912h-.07c-.347.892-1.144 1.442-2.288 1.442-1.526 0-2.566-1.065-2.566-2.816V3.799h2.115v4.396c0 .892.52 1.442 1.318 1.442.762 0 1.456-.515 1.456-1.545V3.799h-.07zm5.894 7.485h-2.115V1.292h2.115v9.993zm3.78 0h-2.116V1.292h2.115v9.993zm8.666-8.379c-1.04 0-1.629.481-1.629 1.134 0 .72.728 1.03 1.595 1.236l.901.206c1.768.378 3.016 1.27 3.016 2.953 0 1.82-1.456 2.987-3.917 2.987-2.462 0-4.022-1.133-4.056-3.262h2.08c.069.996.866 1.511 1.976 1.511 1.075 0 1.768-.48 1.803-1.236 0-.687-.624-.996-1.7-1.236l-1.109-.275c-1.698-.412-2.739-1.236-2.739-2.713 0-1.82 1.595-3.022 3.814-3.022 2.254 0 3.71 1.237 3.744 3.022H69.11c-.104-.824-.728-1.305-1.734-1.305zm9.327 2.438H75.28v3.64c0 .584.277.722.693.722.208 0 .416-.035.52-.07l.347 1.546c-.208.069-.59.172-1.144.206-1.525.069-2.53-.652-2.53-2.129V5.344h-1.04V3.8h1.04V2.014h2.114v1.785h1.421v1.545zm1.005 3.846c0-1.682 1.352-2.163 2.843-2.3 1.317-.138 1.837-.206 1.837-.687v-.034c0-.619-.416-.962-1.11-.962-.762 0-1.213.378-1.351.859l-1.942-.172c.278-1.374 1.491-2.232 3.294-2.232 1.699 0 3.224.755 3.224 2.54v5.049h-1.976v-1.03h-.07c-.38.686-1.109 1.167-2.218 1.167-1.456.034-2.531-.721-2.531-2.198zm4.68-.583v-.79c-.242.172-1.005.275-1.456.343-.728.103-1.213.378-1.213.962s.45.858 1.11.858c.9 0 1.56-.584 1.56-1.373zm3.398-1.03c0-2.301 1.421-3.88 3.71-3.88 1.976 0 3.293 1.132 3.397 2.884h-1.976c-.104-.756-.59-1.237-1.387-1.237-.97 0-1.63.825-1.63 2.232 0 1.443.625 2.233 1.63 2.233.728 0 1.248-.447 1.387-1.237h1.976c-.104 1.717-1.352 2.885-3.363 2.885-2.357-.035-3.744-1.614-3.744-3.88zm8.459-6.285h2.115v5.323h.104l2.427-2.85h2.392l-2.808 3.228 2.947 4.258H98.96l-2.08-3.022-.555.652v2.37H94.21V1.292h.035zM44.98 15.715v6.49c0 2.198-1.664 3.64-4.195 3.64-2.53 0-4.195-1.442-4.195-3.64v-6.49h2.15v6.318c0 1.133.797 1.958 2.045 1.958 1.248 0 2.046-.825 2.046-1.958v-6.318h2.15zm6.067 4.739c-.104-.481-.52-.893-1.283-.893-.658 0-1.178.309-1.144.755 0 .378.243.584.971.756l1.352.274c1.456.31 2.184.962 2.184 2.026 0 1.477-1.421 2.473-3.363 2.473-2.01 0-3.224-.893-3.432-2.3l2.08-.104c.139.618.624.927 1.387.927.728 0 1.214-.309 1.248-.755 0-.378-.312-.618-.97-.756l-1.318-.274c-1.49-.31-2.184-1.03-2.184-2.13 0-1.442 1.283-2.334 3.19-2.334 1.906 0 3.05.858 3.224 2.232l-1.942.103zm3.12 1.545c0-2.3 1.456-3.88 3.675-3.88 2.011 0 3.571 1.27 3.571 3.811v.584h-5.165c0 1.133.658 1.82 1.698 1.82.694 0 1.248-.309 1.457-.858l1.941.137c-.312 1.373-1.56 2.3-3.432 2.3-2.323-.068-3.745-1.545-3.745-3.914zm5.236-.79c0-.893-.625-1.545-1.56-1.545-.937 0-1.595.687-1.63 1.545h3.19zm3.362-2.987h2.046v1.304h.07c.277-.927.97-1.407 1.802-1.407.208 0 .485.034.659.068v1.82c-.208-.068-.59-.103-.902-.103-.936 0-1.594.618-1.594 1.546v4.223h-2.08v-7.451zm11.06 7.486h-2.15v-9.993h2.15v9.993zm3.813 0h-2.114v-7.486h2.01v1.304h.104c.347-.858 1.145-1.407 2.289-1.407 1.56 0 2.6 1.064 2.6 2.815v4.774h-2.115v-4.396c0-.927-.485-1.476-1.352-1.476-.832 0-1.422.549-1.422 1.545v4.327zm10.54-5.941h-1.421v3.64c0 .584.277.721.693.721.208 0 .416-.034.52-.069l.347 1.546c-.208.068-.59.171-1.144.206-1.526.068-2.531-.653-2.531-2.13v-3.914h-1.04v-1.545h1.04v-1.786h2.115v1.786h1.421v1.545zm.971 2.232c0-2.3 1.456-3.88 3.675-3.88 2.01 0 3.57 1.27 3.57 3.811v.584H91.23c0 1.133.659 1.82 1.699 1.82.693 0 1.248-.309 1.456-.858l1.941.137c-.312 1.373-1.56 2.3-3.432 2.3-2.323-.068-3.744-1.545-3.744-3.914zm5.27-.79c0-.893-.625-1.545-1.56-1.545-.937 0-1.595.687-1.63 1.545h3.19zm3.328-2.987h2.045v1.304h.07c.277-.927.97-1.407 1.802-1.407.208 0 .486.034.659.068v1.82c-.208-.068-.589-.103-.901-.103-.936 0-1.595.618-1.595 1.546v4.223h-2.115v-7.451h.035zm10.123 1.545h-1.491v5.94h-2.114v-5.94h-1.075v-1.545h1.075v-.55c0-1.614 1.074-2.438 2.496-2.438.658 0 1.213.137 1.491.206l-.382 1.545a1.894 1.894 0 00-.659-.103c-.624 0-.832.31-.832.79v.515h1.491v1.58zm.659 3.846c0-1.683 1.352-2.163 2.843-2.3 1.317-.138 1.837-.207 1.837-.688v-.034c0-.618-.416-.961-1.109-.961-.763 0-1.214.377-1.352.858l-1.942-.172c.278-1.373 1.491-2.232 3.294-2.232 1.699 0 3.224.756 3.224 2.541v5.048h-1.976v-1.03h-.069c-.382.687-1.11 1.168-2.219 1.168-1.491.034-2.531-.721-2.531-2.198zm4.68-.584v-.79c-.242.172-1.005.275-1.456.344-.728.103-1.213.378-1.213.961 0 .584.45.859 1.109.859.902 0 1.56-.584 1.56-1.374zm3.398-1.03c0-2.3 1.421-3.88 3.709-3.88 1.977 0 3.294 1.133 3.398 2.884h-1.976c-.104-.755-.59-1.236-1.387-1.236-.971 0-1.629.824-1.629 2.232 0 1.442.624 2.232 1.629 2.232.728 0 1.248-.446 1.387-1.236h1.976c-.104 1.717-1.352 2.884-3.363 2.884-2.357-.034-3.744-1.614-3.744-3.88zm8.147 0c0-2.3 1.456-3.88 3.675-3.88 2.011 0 3.571 1.27 3.571 3.811v.584h-5.166c0 1.133.659 1.82 1.699 1.82.693 0 1.248-.309 1.456-.858l1.942.137c-.312 1.373-1.56 2.3-3.433 2.3-2.322-.068-3.744-1.545-3.744-3.914zm5.27-.79c0-.893-.624-1.545-1.56-1.545s-1.595.687-1.63 1.545h3.19z" fill="#000"/><g><animateTransform attributeName="transform" attributeType="g" type="rotate" from="0 14 14" to="360 14 14" dur="3s" repeatCount="indefinite"/><path fill-rule="evenodd" clip-rule="evenodd" d="M3.024 10.19a21.354 21.354 0 014.14 6.396A21.024 21.024 0 018.76 24.05v.015c.007.577.738.953 1.236.492a20.834 20.834 0 016.397-4.145 20.992 20.992 0 017.453-1.592c.605-.023.966-.762.49-1.28l-.002-.002c-2.481-2.71-3.705-5.35-4.135-6.39a21.024 21.024 0 01-1.595-7.463V3.67c-.008-.577-.74-.953-1.236-.492a20.836 20.836 0 01-6.397 4.145 20.995 20.995 0 01-7.454 1.592c-.603.023-.964.759-.493 1.277zm-1.646 1.522C-.354 9.828.859 6.76 3.444 6.672h.009c1.96-.05 4.28-.437 6.66-1.423a18.587 18.587 0 005.714-3.702l.004-.003.003-.004c1.833-1.713 4.972-.543 5.011 2.094a18.78 18.78 0 001.425 6.655c.37.894 1.471 3.28 3.717 5.733 1.73 1.884.516 4.951-2.068 5.038h-.009c-1.96.05-4.28.438-6.659 1.424a18.593 18.593 0 00-5.715 3.702l-.003.003-.004.003c-1.833 1.714-4.972.544-5.01-2.093a18.781 18.781 0 00-1.425-6.655 19.11 19.11 0 00-3.707-5.722l-.005-.005-.004-.005z" fill="#0064FE"/><path fill-rule="evenodd" clip-rule="evenodd" d="M12.814 11.499a2.616 2.616 0 102.004 4.833 2.616 2.616 0 00-2.004-4.833zm-3.486 4.276a4.858 4.858 0 118.975-3.718 4.858 4.858 0 01-2.628 6.35 4.859 4.859 0 01-6.347-2.632z" fill="#0064FE"/><path fill-rule="evenodd" clip-rule="evenodd" d="M10.297 3.298c-.49-.461-1.232-.154-1.252.519v.008a21.747 21.747 0 01-1.607 7.451 21.194 21.194 0 01-4.134 6.412.73.73 0 00.518 1.254h.001c2.208.068 4.777.5 7.457 1.61a21.205 21.205 0 016.41 4.138.738.738 0 001.254-.528 21.747 21.747 0 011.607-7.45 21.195 21.195 0 014.13-6.407.748.748 0 00-.522-1.258 21.213 21.213 0 01-7.45-1.61 21.206 21.206 0 01-6.411-4.139zm1.536-1.633c-1.896-1.785-4.948-.523-5.03 2.08a19.504 19.504 0 01-1.437 6.673 18.95 18.95 0 01-3.695 5.733M11.833 1.665a18.962 18.962 0 005.733 3.7 18.952 18.952 0 006.668 1.44h.01c2.559.103 3.818 3.143 2.08 5.025l-.002.003-.004.004a18.954 18.954 0 00-3.696 5.734 19.504 19.504 0 00-1.438 6.677v.002c-.1 2.524-3.106 3.885-5.03 2.073a18.96 18.96 0 00-5.732-3.699 18.947 18.947 0 00-6.668-1.44c-2.603-.08-3.869-3.136-2.083-5.033" fill="#0064FE"/></g></g><defs><clipPath id="clip0"><path fill="#fff" d="M0 0h140v28H0z"/></clipPath></defs></svg>